<?xml version="1.0" encoding="utf-8"?>
<!-- Generator: Adobe Illustrator 16.0.0, SVG Export Plug-In . SVG Version: 6.00 Build 0)  -->
<!DOCTYPE svg PUBLIC "-//W3C//DTD SVG 1.1//EN" "http://www.w3.org/Graphics/SVG/1.1/DTD/svg11.dtd">
<svg version="1.1" id="Layer_1" xmlns="http://www.w3.org/2000/svg" xmlns:xlink="http://www.w3.org/1999/xlink" x="0px" y="0px"
	 width="288px" height="432px" viewBox="167.5 96.5 288 432" enable-background="new 167.5 96.5 288 432" xml:space="preserve">
<g id="paper">
	
		<line fill="none" stroke="#010101" stroke-width="0.25" stroke-miterlimit="10" x1="301.922" y1="386.995" x2="379.882" y2="386.995"/>
	
		<line fill="none" stroke="#6D6E71" stroke-width="0.25" stroke-miterlimit="10" x1="301.918" y1="429.515" x2="379.882" y2="429.515"/>
	<path fill="none" stroke="#6D6E71" stroke-width="0.25" stroke-miterlimit="10" d="M288.859,429.511h20.54
		c-1.96,0-3.721,0.791-5.011,2.07c-1.279,1.289-2.07,3.062-2.07,5.021c0,3.908,3.171,7.08,7.081,7.08h77.963
		c6.369,0,11.76-4.201,13.54-10c0.409-1.32,0.63-2.723,0.63-4.172v-7.801c0-1.56,1.271-2.83,2.83-2.83h11.34
		c5.87,0,10.63-4.76,10.63-10.63c0-5.868-4.76-10.63-10.63-10.63h-11.34c-1.561,0-2.83-1.271-2.83-2.83v-7.8
		c0-1.451-0.221-2.852-0.63-4.171c-1.37-4.477-4.9-7.997-9.37-9.367c-1.319-0.41-2.721-0.63-4.17-0.63h-77.963
		c-1.96,0-3.721,0.79-5.011,2.069c-1.279,1.289-2.07,3.051-2.07,5.01c0,3.918,3.16,7.078,7.061,7.089h-20.52
		c0,0.399-0.32,0.71-0.711,0.71c-0.4,0-0.709-0.311-0.709-0.71h-27.635c0,0.399-0.319,0.71-0.71,0.71s-0.711-0.311-0.711-0.71
		c0-0.2,0.08-0.37,0.211-0.501l-13.169-13.179c-0.131,0.131-0.301,0.211-0.5,0.211c-0.34,0-0.631-0.24-0.699-0.57l-6.381,1.279
		v11.339l6.381,1.279c0.068-0.319,0.359-0.569,0.699-0.569c0.391,0,0.709,0.319,0.709,0.711c0,0.399-0.318,0.71-0.709,0.71
		s-0.711-0.311-0.711-0.71h-12.76c-3.91,0-7.091,3.169-7.091,7.089c0,3.91,3.181,7.089,7.091,7.089c0.062,0,0.121,0,0.18-0.01h6.91
		v0.01h5.67c0-0.389,0.32-0.709,0.711-0.709s0.709,0.32,0.709,0.709h41.803c0-0.389,0.31-0.709,0.709-0.709
		c0.392,0,0.711,0.32,0.711,0.709l39.001,0.001c1.551,0.011,2.802,1.271,2.802,2.83v8.5c0,1.562-1.251,2.82-2.791,2.841h-39.012
		c0,0.391-0.319,0.709-0.711,0.709c-0.399,0-0.709-0.318-0.709-0.709h-41.803c0,0.391-0.318,0.709-0.709,0.709
		s-0.711-0.318-0.711-0.709h-12.76c-3.91,0-7.091,3.168-7.091,7.078c0,3.922,3.181,7.092,7.091,7.092h12.76
		c0-0.391,0.32-0.711,0.711-0.711s0.709,0.32,0.709,0.711c0,0.398-0.318,0.711-0.709,0.711c-0.34,0-0.631-0.24-0.699-0.57
		l-6.381,1.281v11.34l6.381,1.277c0.068-0.318,0.359-0.568,0.699-0.568c0.199,0,0.369,0.08,0.5,0.211l13.169-13.182
		c-0.131-0.119-0.211-0.301-0.211-0.5c0-0.391,0.32-0.711,0.711-0.711s0.71,0.32,0.71,0.711h27.634c0-0.391,0.31-0.711,0.709-0.711
		C288.539,428.802,288.859,429.12,288.859,429.511z M329.96,386.991h1.411c0,0.392-0.311,0.711-0.7,0.711
		C330.271,387.702,329.96,387.383,329.96,386.991z M331.371,429.511h-1.411c0-0.391,0.313-0.709,0.711-0.709
		C331.062,428.802,331.371,429.12,331.371,429.511z"/>
</g>
<g id="reference">
	<path fill="#AAB3AB" d="M282.782,491.127l71.741,0.127c1.004,0,1.898-0.147,1.898,2l-0.088,23.625h-75.362v-23.713
		C280.973,492.107,281.074,491.127,282.782,491.127"/>
	<path fill="#030303" d="M355.153,490.84h-73.105c-0.782,0-1.422,0.638-1.422,1.422v24.841c0,0.176,0.145,0.319,0.321,0.319h75.306
		c0.179,0,0.322-0.145,0.322-0.319v-24.841C356.574,491.477,355.937,490.84,355.153,490.84 M282.047,491.482h73.105
		c0.43,0,0.778,0.35,0.778,0.778v17.229h-52.25c-1.915,3.463-5.605,5.812-9.841,5.812c-4.234,0-7.925-2.348-9.839-5.812h-2.733
		v-17.229C281.269,491.832,281.617,491.482,282.047,491.482"/>
	<path fill="#FFFFFF" d="M302.476,503.213c0.002,4.769-3.859,8.631-8.625,8.635c-4.768,0.002-8.631-3.858-8.636-8.623v-0.012
		c-0.003-4.766,3.859-8.631,8.625-8.633c4.767-0.004,8.633,3.859,8.636,8.623V503.213z"/>
	<path fill="#030303" d="M300.86,496.187c1.914,1.912,2.871,4.255,2.871,7.025c0,2.773-0.94,5.09-2.821,6.955
		c-1.996,1.963-4.354,2.943-7.077,2.943c-2.688,0-5.007-0.972-6.953-2.918c-1.946-1.947-2.92-4.273-2.92-6.98
		c0-2.705,0.974-5.049,2.92-7.025c1.896-1.916,4.216-2.872,6.953-2.872C296.604,493.314,298.946,494.271,300.86,496.187
		 M288.167,497.473c-1.618,1.636-2.427,3.55-2.427,5.742c0,2.195,0.801,4.097,2.402,5.695c1.602,1.602,3.507,2.401,5.719,2.401
		s4.135-0.811,5.771-2.428c1.551-1.502,2.325-3.391,2.325-5.67c0-2.26-0.788-4.178-2.364-5.754s-3.486-2.365-5.73-2.365
		S289.72,495.889,288.167,497.473 M292.424,502.25c-0.245-0.539-0.615-0.809-1.109-0.809c-0.872,0-1.309,0.588-1.309,1.762
		c0,1.176,0.437,1.762,1.309,1.762c0.577,0,0.987-0.285,1.234-0.858l1.21,0.645c-0.576,1.025-1.441,1.537-2.596,1.537
		c-0.89,0-1.602-0.271-2.137-0.818c-0.536-0.545-0.804-1.297-0.804-2.256c0-0.94,0.275-1.688,0.828-2.242
		c0.552-0.553,1.239-0.83,2.062-0.83c1.22,0,2.091,0.48,2.62,1.439L292.424,502.25z M298.115,502.25
		c-0.248-0.539-0.611-0.809-1.089-0.809c-0.89,0-1.335,0.588-1.335,1.762c0,1.176,0.445,1.762,1.335,1.762
		c0.577,0,0.98-0.285,1.212-0.858l1.236,0.645c-0.576,1.025-1.439,1.537-2.593,1.537c-0.887,0-1.598-0.271-2.133-0.818
		c-0.533-0.545-0.801-1.297-0.801-2.256c0-0.94,0.271-1.688,0.814-2.242c0.541-0.553,1.231-0.83,2.07-0.83
		c1.217,0,2.089,0.48,2.614,1.439L298.115,502.25z"/>
	<path fill="#FFFFFF" d="M313.387,493.68c3.754,0,6.797,3.041,6.797,6.795s-3.043,6.795-6.797,6.795
		c-3.755,0-6.798-3.041-6.798-6.795S309.633,493.68,313.387,493.68"/>
	<path fill="#030303" d="M315.354,498.508c0-0.262-0.213-0.475-0.477-0.475h-3.002c-0.261,0-0.473,0.213-0.473,0.475v3.002h0.837
		v3.556h2.275v-3.556h0.838L315.354,498.508L315.354,498.508z"/>
	<path fill="#030303" d="M313.378,495.586c0.565,0,1.025,0.459,1.025,1.025c0,0.567-0.46,1.028-1.025,1.028
		c-0.566,0-1.026-0.461-1.026-1.028C312.352,496.045,312.812,495.586,313.378,495.586"/>
	<path fill="#030303" d="M313.368,492.988c-2.033,0-3.754,0.709-5.162,2.127c-1.444,1.467-2.167,3.205-2.167,5.211
		c0,2.004,0.723,3.729,2.167,5.172c1.445,1.443,3.166,2.166,5.162,2.166c2.021,0,3.771-0.729,5.255-2.184
		c1.396-1.384,2.095-3.101,2.095-5.154c0-2.058-0.709-3.793-2.132-5.211C317.165,493.697,315.428,492.988,313.368,492.988
		 M313.388,494.307c1.666,0,3.08,0.589,4.242,1.763c1.178,1.162,1.767,2.58,1.767,4.258c0,1.688-0.576,3.088-1.729,4.199
		c-1.213,1.198-2.64,1.799-4.279,1.799c-1.643,0-3.057-0.594-4.244-1.779c-1.188-1.188-1.782-2.592-1.782-4.219
		s0.601-3.045,1.801-4.258C310.314,494.896,311.723,494.307,313.388,494.307"/>
	<path fill="#FFFFFF" d="M311.258,511.566c0.199,0,0.383,0.018,0.547,0.053c0.165,0.035,0.307,0.092,0.424,0.172
		s0.209,0.188,0.272,0.32c0.064,0.132,0.099,0.297,0.099,0.491c0,0.214-0.049,0.388-0.146,0.527
		c-0.096,0.143-0.237,0.258-0.426,0.348c0.259,0.074,0.452,0.205,0.58,0.392c0.127,0.188,0.19,0.41,0.19,0.672
		c0,0.211-0.041,0.395-0.122,0.549c-0.083,0.154-0.193,0.281-0.334,0.379c-0.14,0.099-0.298,0.172-0.477,0.217
		c-0.179,0.048-0.362,0.07-0.55,0.07h-2.035v-4.188L311.258,511.566L311.258,511.566z M311.141,513.262
		c0.164,0,0.3-0.039,0.404-0.116c0.106-0.08,0.159-0.205,0.159-0.382c0-0.098-0.018-0.178-0.053-0.239
		c-0.036-0.062-0.082-0.111-0.142-0.146s-0.126-0.061-0.202-0.072c-0.077-0.016-0.156-0.021-0.238-0.021h-0.864v0.979h0.936V513.262
		z M311.194,515.039c0.091,0,0.177-0.008,0.259-0.025c0.082-0.02,0.154-0.049,0.218-0.088c0.063-0.043,0.112-0.098,0.149-0.168
		s0.057-0.16,0.057-0.27c0-0.216-0.061-0.369-0.183-0.461c-0.122-0.093-0.282-0.138-0.482-0.138h-1.006v1.148L311.194,515.039
		L311.194,515.039z"/>
	<polygon fill="#FFFFFF" points="312.962,511.566 313.995,511.566 314.979,513.221 315.953,511.566 316.982,511.566 
		315.426,514.148 315.426,515.756 314.501,515.756 314.501,514.125 	"/>
	<path fill="#FFFFFF" d="M342.93,514.721c0.052,0.099,0.117,0.177,0.201,0.236c0.084,0.062,0.183,0.107,0.297,0.137
		c0.111,0.029,0.229,0.043,0.352,0.043c0.081,0,0.169-0.006,0.263-0.02c0.095-0.015,0.183-0.041,0.265-0.08s0.148-0.092,0.205-0.162
		c0.055-0.068,0.081-0.154,0.081-0.26c0-0.113-0.035-0.205-0.108-0.275c-0.072-0.072-0.166-0.131-0.283-0.178
		c-0.117-0.045-0.25-0.088-0.397-0.123c-0.148-0.035-0.3-0.074-0.451-0.117c-0.157-0.039-0.31-0.088-0.457-0.143
		c-0.149-0.06-0.282-0.131-0.401-0.222c-0.114-0.09-0.21-0.2-0.282-0.338c-0.071-0.135-0.106-0.299-0.106-0.489
		c0-0.216,0.045-0.402,0.137-0.562c0.091-0.158,0.213-0.291,0.361-0.396c0.147-0.105,0.315-0.185,0.504-0.234
		s0.375-0.076,0.562-0.076c0.221,0,0.431,0.025,0.632,0.074c0.2,0.047,0.38,0.127,0.536,0.236c0.156,0.108,0.279,0.25,0.371,0.422
		c0.092,0.17,0.14,0.377,0.14,0.617h-0.896c-0.008-0.125-0.033-0.229-0.079-0.312c-0.044-0.082-0.104-0.145-0.178-0.193
		c-0.074-0.047-0.16-0.079-0.254-0.1c-0.095-0.02-0.2-0.029-0.313-0.029c-0.071,0-0.146,0.009-0.221,0.023
		c-0.075,0.016-0.142,0.043-0.203,0.082c-0.06,0.039-0.108,0.088-0.147,0.146c-0.038,0.062-0.061,0.136-0.061,0.226
		c0,0.082,0.019,0.147,0.048,0.197c0.031,0.053,0.095,0.1,0.187,0.143s0.219,0.086,0.381,0.129s0.375,0.098,0.636,0.164
		c0.079,0.016,0.188,0.045,0.325,0.086s0.277,0.107,0.414,0.197c0.136,0.09,0.254,0.211,0.354,0.359
		c0.101,0.149,0.149,0.344,0.149,0.579c0,0.191-0.038,0.369-0.113,0.533c-0.072,0.164-0.184,0.308-0.33,0.427
		c-0.146,0.118-0.329,0.213-0.548,0.278c-0.215,0.068-0.466,0.101-0.754,0.101c-0.229,0-0.455-0.027-0.671-0.086
		c-0.217-0.058-0.409-0.146-0.576-0.269c-0.166-0.121-0.297-0.275-0.396-0.463c-0.099-0.189-0.146-0.412-0.142-0.67h0.896
		C342.854,514.502,342.877,514.623,342.93,514.721"/>
	<path fill="#FFFFFF" d="M348.122,511.566l1.567,4.188h-0.957l-0.317-0.934h-1.566l-0.328,0.934h-0.928l1.584-4.188H348.122z
		 M348.175,514.135l-0.527-1.537h-0.014l-0.545,1.537H348.175z"/>
	<polygon fill="#FFFFFF" points="326.522,511.566 328.274,514.377 328.283,514.377 328.283,511.566 329.148,511.566 
		329.148,515.756 328.227,515.756 326.481,512.951 326.471,512.951 326.471,515.756 325.605,515.756 325.605,511.566 	"/>
	<path fill="#FFFFFF" d="M332.647,512.682c-0.055-0.088-0.123-0.166-0.205-0.229c-0.082-0.068-0.176-0.121-0.279-0.156
		c-0.104-0.039-0.213-0.057-0.324-0.057c-0.209,0-0.385,0.041-0.528,0.121c-0.146,0.08-0.264,0.188-0.354,0.321
		c-0.091,0.136-0.155,0.289-0.195,0.461c-0.042,0.173-0.062,0.351-0.062,0.533c0,0.177,0.021,0.349,0.062,0.515
		s0.104,0.315,0.195,0.448c0.09,0.134,0.207,0.238,0.354,0.318c0.145,0.082,0.319,0.123,0.528,0.123c0.279,0,0.501-0.086,0.659-0.26
		c0.158-0.173,0.255-0.4,0.29-0.683h0.894c-0.023,0.263-0.084,0.5-0.183,0.711c-0.098,0.213-0.227,0.394-0.388,0.541
		c-0.16,0.148-0.348,0.265-0.563,0.342c-0.215,0.078-0.451,0.117-0.709,0.117c-0.321,0-0.61-0.055-0.866-0.168
		c-0.257-0.108-0.475-0.266-0.649-0.459c-0.177-0.197-0.312-0.428-0.406-0.69c-0.094-0.264-0.142-0.55-0.142-0.855
		c0-0.312,0.048-0.602,0.142-0.871c0.095-0.268,0.229-0.502,0.406-0.703c0.176-0.196,0.395-0.354,0.649-0.469s0.545-0.17,0.866-0.17
		c0.23,0,0.448,0.033,0.653,0.101c0.206,0.065,0.39,0.163,0.552,0.291c0.162,0.127,0.297,0.284,0.402,0.473
		c0.105,0.188,0.172,0.404,0.199,0.646h-0.894C332.738,512.867,332.701,512.771,332.647,512.682"/>
	<path fill="#FFFFFF" d="M353.145,500.32c0.003,3.698-2.995,6.7-6.695,6.703c-3.701,0.004-6.701-2.992-6.704-6.693v-0.01
		c-0.002-3.699,2.995-6.701,6.694-6.703c3.7-0.002,6.701,2.994,6.705,6.692V500.32z"/>
	<path fill="#030303" d="M346.397,492.982c-2.033,0-3.756,0.711-5.162,2.129c-1.445,1.467-2.169,3.205-2.169,5.211
		c0,2.004,0.724,3.729,2.169,5.172c1.443,1.442,3.165,2.166,5.162,2.166c2.02,0,3.771-0.729,5.254-2.185
		c1.396-1.383,2.094-3.102,2.094-5.153c0-2.058-0.709-3.793-2.131-5.211C350.194,493.693,348.453,492.982,346.397,492.982
		 M346.414,494.303c1.666,0,3.08,0.588,4.244,1.765c1.176,1.159,1.764,2.577,1.764,4.256c0,1.686-0.575,3.086-1.728,4.198
		c-1.212,1.199-2.64,1.8-4.28,1.8c-1.64,0-3.057-0.595-4.244-1.779c-1.188-1.188-1.78-2.592-1.78-4.219s0.6-3.047,1.8-4.256
		C343.34,494.891,344.748,494.303,346.414,494.303"/>
	<path fill="#030303" d="M343.144,499.285c0.293-1.846,1.593-2.834,3.222-2.834c2.343,0,3.771,1.699,3.771,3.967
		c0,2.215-1.521,3.93-3.808,3.93c-1.574,0-2.983-0.967-3.24-2.868h1.85c0.056,0.987,0.695,1.334,1.609,1.334
		c1.045,0,1.722-0.968,1.722-2.449c0-1.556-0.585-2.375-1.685-2.375c-0.806,0-1.501,0.291-1.646,1.297l0.538-0.004l-1.456,1.455
		l-1.456-1.455L343.144,499.285z"/>
	<path fill="#FFFFFF" d="M336.72,500.32c0.004,3.771-3.052,6.828-6.822,6.832c-3.771,0.002-6.83-3.052-6.832-6.822v-0.01
		c-0.004-3.771,3.051-6.828,6.822-6.832c3.77-0.002,6.83,3.053,6.832,6.821V500.32z"/>
	<path fill="#030303" d="M329.884,492.982c2.057,0,3.797,0.711,5.217,2.129c1.422,1.418,2.131,3.153,2.131,5.211
		c0,2.053-0.697,3.771-2.094,5.153c-1.482,1.455-3.233,2.185-5.255,2.185c-1.995,0-3.718-0.724-5.161-2.166
		c-1.445-1.441-2.168-3.168-2.168-5.172c0-2.006,0.723-3.744,2.168-5.211C326.129,493.693,327.851,492.982,329.884,492.982
		 M324.204,498.35c-0.22,0.619-0.329,1.275-0.329,1.974c0,1.627,0.595,3.031,1.782,4.219c1.188,1.186,2.604,1.779,4.243,1.779
		c1.642,0,3.067-0.601,4.28-1.799c0.404-0.394,0.74-0.82,1.003-1.281l-2.768-1.234c-0.187,0.933-1.017,1.562-2.021,1.635v1.132
		h-0.842v-1.132c-0.823-0.01-1.619-0.348-2.229-0.879l1.012-1.02c0.486,0.457,0.974,0.664,1.639,0.664
		c0.432,0,0.909-0.168,0.909-0.73c0-0.197-0.078-0.336-0.199-0.438l-0.699-0.312l-0.871-0.389c-0.432-0.191-0.797-0.354-1.163-0.519
		L324.204,498.35z M329.901,494.303c-1.666,0-3.073,0.588-4.225,1.765c-0.313,0.313-0.586,0.645-0.818,0.989l2.807,1.248
		c0.254-0.776,0.992-1.25,1.892-1.303v-1.131h0.842v1.131c0.581,0.029,1.217,0.188,1.845,0.674l-0.964,0.99
		c-0.354-0.252-0.806-0.428-1.255-0.428c-0.364,0-0.88,0.108-0.88,0.567c0,0.068,0.022,0.131,0.065,0.187l0.938,0.418l0.635,0.283
		c0.407,0.182,0.794,0.354,1.179,0.524l3.762,1.674c0.124-0.491,0.187-1.018,0.187-1.569c0-1.679-0.588-3.097-1.764-4.256
		C332.982,494.891,331.567,494.303,329.901,494.303"/>
	<text transform="matrix(1 0 0 1 281.2842 487.6836)" fill="#1D1D1B" font-family="'Lato-Heavy'" font-size="7.1174">wolfCatWorkshop.com</text>
</g>
<g id="plywood">
	<polygon fill="none" stroke="#010101" stroke-width="0.25" stroke-miterlimit="10" points="278.062,263.981 278.062,229.962 
		269.552,229.962 269.552,212.952 277.353,212.952 277.353,204.452 346.805,204.452 346.805,212.952 354.596,212.952 
		354.596,229.962 346.096,229.962 346.096,263.981 354.596,263.981 354.596,289.49 269.552,289.49 269.552,263.981 	"/>
	<polygon fill="none" stroke="#010101" stroke-width="0.25" stroke-miterlimit="10" points="278.063,171.304 278.063,128.786 
		269.553,128.786 269.553,111.777 354.595,111.777 354.595,128.786 346.095,128.786 346.095,171.304 354.595,171.304 
		354.595,196.817 346.095,196.817 346.095,188.318 278.063,188.318 278.063,196.817 269.553,196.817 269.553,171.304 	"/>
	<path fill="none" stroke="#010101" stroke-width="0.25" stroke-miterlimit="10" d="M181.673,188.315h24.8v8.499h35.432v-8.499h16.3
		v-16.302h8.51v-43.939h-8.51v-16.3l-30.24,30.25c-2.05-2.051-4.89-3.32-8.021-3.32c-6.261,0-11.341,5.07-11.341,11.341
		c0,3.129,1.271,5.959,3.32,8.01L181.673,188.315z M225.613,150.045c0,3.129-2.53,5.67-5.66,5.67c-3.142,0-5.67-2.541-5.67-5.67
		c0-3.13,2.528-5.67,5.67-5.67C223.083,144.375,225.613,146.914,225.613,150.045z"/>
	<path fill="none" stroke="#010101" stroke-width="0.25" stroke-miterlimit="10" d="M414.593,158.054
		c2.05-2.051,3.319-4.881,3.319-8.01c0-6.271-5.079-11.341-11.34-11.341c-3.131,0-5.971,1.27-8.021,3.32l-30.239-30.25v16.3h-8.511
		v43.939h8.511v16.302h16.301v8.499h35.432v-8.499h24.799L414.593,158.054z M406.562,144.375c3.143,0,5.67,2.541,5.67,5.67
		c0,3.131-2.529,5.67-5.67,5.67c-3.13,0-5.66-2.539-5.66-5.67C400.902,146.916,403.433,144.375,406.562,144.375z"/>
	<polygon fill="none" stroke="#010101" stroke-width="0.25" stroke-miterlimit="10" points="260.946,329.308 260.946,319.868 
		292.124,319.868 292.124,344.438 312.915,344.438 312.915,295.288 350.945,295.288 350.945,319.868 374.326,319.868 
		374.326,329.308 343.15,329.308 343.15,304.728 322.357,304.728 322.357,353.878 284.329,353.878 284.329,329.308 	"/>
	<path fill="none" stroke="#010101" stroke-width="0.25" stroke-miterlimit="10" d="M242.868,212.778v102.05h-6.379v-8.51h-7.801
		v8.51h-5.67v-96.38h-25.51v2.83h-8.5v-11.33h51.02C241.599,209.948,242.868,211.208,242.868,212.778z"/>
	<path fill="none" stroke="#010101" stroke-width="0.25" stroke-miterlimit="10" d="M234.362,306.322"/>
	<path fill="none" stroke="#010101" stroke-width="0.25" stroke-miterlimit="10" d="M226.286,260.073"/>
	<path fill="none" stroke="#010101" stroke-width="0.25" stroke-miterlimit="10" d="M226.286,217.554"/>
	
		<line fill="none" stroke="#010101" stroke-width="0.25" stroke-miterlimit="10" x1="223.024" y1="258.13" x2="237.196" y2="258.13"/>
	<line fill="none" stroke="#010101" stroke-width="0.25" stroke-miterlimit="10" x1="223.024" y1="263.8" x2="237.196" y2="263.8"/>
	
		<line fill="none" stroke="#010101" stroke-width="0.25" stroke-miterlimit="10" x1="223.024" y1="269.469" x2="237.196" y2="269.469"/>
	
		<line fill="none" stroke="#010101" stroke-width="0.25" stroke-miterlimit="10" x1="223.024" y1="275.14" x2="237.196" y2="275.14"/>
	
		<line fill="none" stroke="#010101" stroke-width="0.25" stroke-miterlimit="10" x1="223.024" y1="280.808" x2="237.196" y2="280.808"/>
	
		<line fill="none" stroke="#010101" stroke-width="0.25" stroke-miterlimit="10" x1="223.024" y1="286.478" x2="237.196" y2="286.478"/>
	
		<line fill="none" stroke="#010101" stroke-width="0.25" stroke-miterlimit="10" x1="223.024" y1="292.147" x2="237.196" y2="292.147"/>
	
		<line fill="none" stroke="#010101" stroke-width="0.25" stroke-miterlimit="10" x1="223.024" y1="297.818" x2="237.196" y2="297.818"/>
	
		<line fill="none" stroke="#010101" stroke-width="0.25" stroke-miterlimit="10" x1="223.022" y1="252.46" x2="237.196" y2="252.46"/>
	
		<line fill="none" stroke="#010101" stroke-width="0.25" stroke-miterlimit="10" x1="223.022" y1="246.792" x2="237.196" y2="246.792"/>
	
		<line fill="none" stroke="#010101" stroke-width="0.25" stroke-miterlimit="10" x1="223.022" y1="241.124" x2="237.196" y2="241.124"/>
	
		<line fill="none" stroke="#010101" stroke-width="0.25" stroke-miterlimit="10" x1="223.022" y1="235.456" x2="237.196" y2="235.456"/>
	
		<line fill="none" stroke="#010101" stroke-width="0.25" stroke-miterlimit="10" x1="223.022" y1="229.787" x2="237.196" y2="229.787"/>
	
		<line fill="none" stroke="#010101" stroke-width="0.25" stroke-miterlimit="10" x1="223.022" y1="224.119" x2="237.196" y2="224.119"/>
	
		<line fill="none" stroke="#010101" stroke-width="0.25" stroke-miterlimit="10" x1="228.692" y1="221.283" x2="242.866" y2="221.283"/>
	
		<line fill="none" stroke="#010101" stroke-width="0.25" stroke-miterlimit="10" x1="228.692" y1="260.965" x2="242.866" y2="260.965"/>
	
		<line fill="none" stroke="#010101" stroke-width="0.25" stroke-miterlimit="10" x1="228.692" y1="266.634" x2="242.866" y2="266.634"/>
	
		<line fill="none" stroke="#010101" stroke-width="0.25" stroke-miterlimit="10" x1="228.692" y1="272.304" x2="242.866" y2="272.304"/>
	
		<line fill="none" stroke="#010101" stroke-width="0.25" stroke-miterlimit="10" x1="228.692" y1="277.974" x2="242.866" y2="277.974"/>
	
		<line fill="none" stroke="#010101" stroke-width="0.25" stroke-miterlimit="10" x1="228.692" y1="283.643" x2="242.866" y2="283.643"/>
	
		<line fill="none" stroke="#010101" stroke-width="0.25" stroke-miterlimit="10" x1="228.692" y1="289.312" x2="242.866" y2="289.312"/>
	
		<line fill="none" stroke="#010101" stroke-width="0.25" stroke-miterlimit="10" x1="228.692" y1="294.984" x2="242.866" y2="294.984"/>
	
		<line fill="none" stroke="#010101" stroke-width="0.25" stroke-miterlimit="10" x1="228.692" y1="300.653" x2="242.866" y2="300.653"/>
	
		<line fill="none" stroke="#010101" stroke-width="0.25" stroke-miterlimit="10" x1="228.692" y1="255.295" x2="242.866" y2="255.295"/>
	
		<line fill="none" stroke="#010101" stroke-width="0.25" stroke-miterlimit="10" x1="228.692" y1="249.626" x2="242.866" y2="249.626"/>
	
		<line fill="none" stroke="#010101" stroke-width="0.25" stroke-miterlimit="10" x1="228.692" y1="243.958" x2="242.866" y2="243.958"/>
	
		<line fill="none" stroke="#010101" stroke-width="0.25" stroke-miterlimit="10" x1="228.692" y1="238.289" x2="242.866" y2="238.289"/>
	
		<line fill="none" stroke="#010101" stroke-width="0.25" stroke-miterlimit="10" x1="228.692" y1="232.619" x2="242.866" y2="232.619"/>
	
		<line fill="none" stroke="#010101" stroke-width="0.25" stroke-miterlimit="10" x1="228.692" y1="226.95" x2="242.866" y2="226.95"/>
	
		<line fill="none" stroke="#010101" stroke-width="0.25" stroke-miterlimit="10" x1="223.024" y1="218.447" x2="237.196" y2="218.447"/>
	<path fill="none" stroke="#010101" stroke-width="0.25" stroke-miterlimit="10" d="M419.141,265.213l7.04-20l0.03-0.051l1.3-3.7
		c0.32-1.358,0.49-2.778,0.49-4.238c0-10.17-8.25-18.42-18.431-18.42c-10.171,0-18.421,8.25-18.421,18.42
		c0,1.46,0.172,2.88,0.49,4.238l1.3,3.682l7.062,20.069c0,5.289,4.29,9.569,9.569,9.569
		C414.86,274.783,419.141,270.504,419.141,265.213z M396.821,237.224c0-7.04,5.71-12.75,12.749-12.75
		c7.05,0,12.761,5.71,12.761,12.75c0,7.05-5.711,12.76-12.761,12.76C402.531,249.983,396.821,244.273,396.821,237.224z
		 M404.061,265.213l5.511-5.511l5.511,5.511l-5.511,5.521L404.061,265.213z"/>
</g>
</svg>
