<?xml version="1.0" encoding="utf-8"?>
<!-- Generator: Adobe Illustrator 16.0.0, SVG Export Plug-In . SVG Version: 6.00 Build 0)  -->
<!DOCTYPE svg PUBLIC "-//W3C//DTD SVG 1.1//EN" "http://www.w3.org/Graphics/SVG/1.1/DTD/svg11.dtd">
<svg version="1.1" id="Layer_1" xmlns="http://www.w3.org/2000/svg" xmlns:xlink="http://www.w3.org/1999/xlink" x="0px" y="0px"
	 width="360px" height="360px" viewBox="128.5 96.5 360 360" enable-background="new 128.5 96.5 360 360" xml:space="preserve">
<g id="plywood">
	<polygon fill="none" stroke="#010101" stroke-width="0.25" stroke-miterlimit="10" points="252.182,281.697 252.182,247.678 
		243.672,247.678 243.672,230.667 251.473,230.667 251.473,222.167 320.922,222.167 320.922,230.667 328.713,230.667 
		328.713,247.678 320.213,247.678 320.213,281.697 328.713,281.697 328.713,307.206 243.672,307.206 243.672,281.697 	"/>
	<polygon fill="none" stroke="#010101" stroke-width="0.25" stroke-miterlimit="10" points="252.183,189.02 252.183,146.501 
		243.673,146.501 243.673,129.493 328.712,129.493 328.712,146.501 320.212,146.501 320.212,189.02 328.712,189.02 328.712,214.533 
		320.212,214.533 320.212,206.034 252.183,206.034 252.183,214.533 243.673,214.533 243.673,189.02 	"/>
	<path fill="none" stroke="#010101" stroke-width="0.25" stroke-miterlimit="10" d="M155.793,206.031h24.8v8.499h35.432v-8.499h16.3
		v-16.302h8.51V145.79h-8.51v-16.3l-30.24,30.25c-2.05-2.051-4.89-3.32-8.021-3.32c-6.261,0-11.341,5.07-11.341,11.341
		c0,3.129,1.271,5.959,3.32,8.01L155.793,206.031z M199.733,167.761c0,3.129-2.53,5.67-5.66,5.67c-3.142,0-5.67-2.541-5.67-5.67
		c0-3.13,2.528-5.67,5.67-5.67C197.203,162.09,199.733,164.629,199.733,167.761z"/>
	<path fill="none" stroke="#010101" stroke-width="0.25" stroke-miterlimit="10" d="M388.71,175.77
		c2.05-2.051,3.319-4.881,3.319-8.01c0-6.271-5.079-11.341-11.34-11.341c-3.131,0-5.971,1.27-8.021,3.32l-30.239-30.25v16.3h-8.511
		v43.939h8.511v16.302h16.301v8.499h35.432v-8.499h24.799L388.71,175.77z M380.68,162.09c3.143,0,5.67,2.541,5.67,5.67
		c0,3.131-2.529,5.67-5.67,5.67c-3.13,0-5.66-2.539-5.66-5.67C375.02,164.631,377.55,162.09,380.68,162.09z"/>
	<polygon fill="none" stroke="#010101" stroke-width="0.25" stroke-miterlimit="10" points="235.066,347.023 235.066,337.583 
		266.244,337.583 266.244,362.153 287.035,362.153 287.035,313.003 325.062,313.003 325.062,337.583 348.443,337.583 
		348.443,347.023 317.268,347.023 317.268,322.443 296.476,322.443 296.476,371.593 258.449,371.593 258.449,347.023 	"/>
</g>
<g id="paper">
	
		<line fill="none" stroke="#010101" stroke-width="0.25" stroke-miterlimit="10" x1="385.812" y1="352.074" x2="385.812" y2="274.117"/>
	
		<line fill="none" stroke="#6D6E71" stroke-width="0.25" stroke-miterlimit="10" x1="428.332" y1="352.078" x2="428.332" y2="274.117"/>
	<path fill="none" stroke="#6D6E71" stroke-width="0.25" stroke-miterlimit="10" d="M428.328,365.136v-20.54
		c0,1.96,0.791,3.721,2.07,5.011c1.29,1.279,3.062,2.07,5.021,2.07c3.908,0,7.08-3.171,7.08-7.081v-77.96
		c0-6.369-4.201-11.76-10-13.54c-1.32-0.409-2.723-0.63-4.172-0.63h-7.801c-1.56,0-2.83-1.271-2.83-2.83v-11.34
		c0-5.87-4.76-10.63-10.63-10.63c-5.868,0-10.63,4.76-10.63,10.63v11.34c0,1.561-1.271,2.83-2.83,2.83h-7.8
		c-1.45,0-2.851,0.221-4.17,0.63c-4.479,1.37-8,4.9-9.37,9.37c-0.41,1.319-0.63,2.721-0.63,4.17v77.96
		c0,1.96,0.79,3.721,2.069,5.011c1.289,1.279,3.051,2.07,5.011,2.07c3.92,0,7.079-3.16,7.09-7.061v20.52
		c0.399,0,0.71,0.32,0.71,0.711c0,0.4-0.311,0.709-0.71,0.709v27.634c0.399,0,0.71,0.32,0.71,0.71c0,0.39-0.311,0.71-0.71,0.71
		c-0.2,0-0.37-0.08-0.5-0.211l-13.181,13.169c0.131,0.131,0.211,0.301,0.211,0.5c0,0.34-0.24,0.631-0.57,0.699l1.279,6.381h11.341
		l1.278-6.381c-0.318-0.068-0.568-0.359-0.568-0.699c0-0.391,0.318-0.709,0.71-0.709c0.399,0,0.71,0.318,0.71,0.709
		s-0.311,0.711-0.71,0.711v12.76c0,3.91,3.17,7.091,7.09,7.091c3.91,0,7.09-3.181,7.09-7.091c0-0.062,0-0.121-0.01-0.18v-6.91h0.01
		v-5.67c-0.39,0-0.709-0.32-0.709-0.711s0.319-0.709,0.709-0.709v-41.802c-0.39,0-0.709-0.31-0.709-0.709
		c0-0.392,0.319-0.711,0.709-0.711v-39c0.011-1.551,1.271-2.801,2.83-2.801h8.5c1.562,0,2.82,1.25,2.841,2.79v39.011
		c0.391,0,0.709,0.319,0.709,0.711c0,0.399-0.318,0.709-0.709,0.709v41.802c0.391,0,0.709,0.318,0.709,0.709
		s-0.318,0.711-0.709,0.711v12.76c0,3.91,3.168,7.091,7.079,7.091c3.921,0,7.091-3.181,7.091-7.091v-12.76
		c-0.391,0-0.711-0.32-0.711-0.711s0.32-0.709,0.711-0.709c0.399,0,0.711,0.318,0.711,0.709c0,0.34-0.24,0.631-0.569,0.699
		l1.28,6.381h11.34l1.277-6.381c-0.318-0.068-0.568-0.359-0.568-0.699c0-0.199,0.08-0.369,0.211-0.5L428.828,395.4
		c-0.119,0.131-0.301,0.211-0.5,0.211c-0.391,0-0.711-0.32-0.711-0.71c0-0.391,0.32-0.71,0.711-0.71v-27.633
		c-0.391,0-0.711-0.31-0.711-0.709C427.619,365.457,427.938,365.136,428.328,365.136z M385.809,324.037v-1.41
		c0.391,0,0.71,0.311,0.71,0.7C386.519,323.726,386.199,324.037,385.809,324.037z M428.328,322.626v1.41
		c-0.39,0-0.709-0.312-0.709-0.71C427.619,322.935,427.938,322.626,428.328,322.626z"/>
</g>
<g>
	<g>
		<path fill="#AAB3AB" d="M263.648,403.336l71.741,0.127c1.004,0,1.898-0.147,1.898,2l-0.088,23.625h-75.362v-23.713
			C261.839,404.316,261.94,403.336,263.648,403.336"/>
		<path fill="#030303" d="M336.02,403.049h-73.105c-0.782,0-1.422,0.638-1.422,1.422v24.841c0,0.176,0.145,0.319,0.321,0.319h75.306
			c0.179,0,0.322-0.145,0.322-0.319v-24.841C337.44,403.686,336.803,403.049,336.02,403.049 M262.913,403.691h73.105
			c0.43,0,0.778,0.35,0.778,0.778v17.229h-52.25c-1.915,3.463-5.605,5.812-9.841,5.812c-4.234,0-7.925-2.348-9.839-5.812h-2.733
			V404.47C262.135,404.041,262.483,403.691,262.913,403.691"/>
		<path fill="#FFFFFF" d="M283.342,415.422c0.002,4.769-3.859,8.631-8.625,8.635c-4.768,0.002-8.631-3.858-8.636-8.623v-0.012
			c-0.003-4.766,3.859-8.631,8.625-8.633c4.767-0.004,8.633,3.859,8.636,8.623V415.422z"/>
		<path fill="#030303" d="M281.727,408.396c1.914,1.912,2.871,4.255,2.871,7.025c0,2.773-0.94,5.09-2.821,6.955
			c-1.996,1.963-4.354,2.943-7.077,2.943c-2.688,0-5.007-0.972-6.953-2.918c-1.946-1.947-2.92-4.273-2.92-6.98
			c0-2.705,0.974-5.049,2.92-7.025c1.896-1.916,4.216-2.872,6.953-2.872C277.471,405.523,279.812,406.479,281.727,408.396
			 M269.033,409.682c-1.618,1.636-2.427,3.55-2.427,5.742c0,2.195,0.801,4.097,2.402,5.695c1.602,1.602,3.507,2.401,5.719,2.401
			s4.135-0.811,5.771-2.428c1.551-1.502,2.325-3.391,2.325-5.67c0-2.26-0.788-4.178-2.364-5.754s-3.486-2.365-5.73-2.365
			S270.586,408.098,269.033,409.682 M273.29,414.459c-0.245-0.539-0.615-0.809-1.109-0.809c-0.872,0-1.309,0.588-1.309,1.762
			c0,1.176,0.437,1.762,1.309,1.762c0.577,0,0.987-0.285,1.234-0.858l1.21,0.645c-0.576,1.025-1.441,1.537-2.596,1.537
			c-0.89,0-1.602-0.271-2.137-0.818c-0.536-0.545-0.804-1.297-0.804-2.256c0-0.94,0.275-1.688,0.828-2.242
			c0.552-0.553,1.239-0.83,2.062-0.83c1.22,0,2.091,0.48,2.62,1.439L273.29,414.459z M278.981,414.459
			c-0.248-0.539-0.611-0.809-1.089-0.809c-0.89,0-1.335,0.588-1.335,1.762c0,1.176,0.445,1.762,1.335,1.762
			c0.577,0,0.98-0.285,1.212-0.858l1.236,0.645c-0.576,1.025-1.439,1.537-2.593,1.537c-0.887,0-1.598-0.271-2.133-0.818
			c-0.533-0.545-0.801-1.297-0.801-2.256c0-0.94,0.271-1.688,0.814-2.242c0.541-0.553,1.231-0.83,2.07-0.83
			c1.217,0,2.089,0.48,2.614,1.439L278.981,414.459z"/>
		<path fill="#FFFFFF" d="M294.254,405.889c3.754,0,6.796,3.041,6.796,6.795s-3.042,6.795-6.796,6.795
			c-3.755,0-6.798-3.041-6.798-6.795S290.5,405.889,294.254,405.889"/>
		<path fill="#030303" d="M296.221,410.717c0-0.262-0.213-0.475-0.477-0.475h-3.002c-0.261,0-0.473,0.213-0.473,0.475v3.002h0.837
			v3.556h2.275v-3.556h0.838L296.221,410.717L296.221,410.717z"/>
		<path fill="#030303" d="M294.245,407.795c0.565,0,1.025,0.459,1.025,1.025c0,0.567-0.46,1.028-1.025,1.028
			c-0.566,0-1.026-0.461-1.026-1.028C293.219,408.254,293.679,407.795,294.245,407.795"/>
		<path fill="#030303" d="M294.235,405.197c-2.033,0-3.754,0.709-5.162,2.127c-1.444,1.467-2.168,3.205-2.168,5.211
			c0,2.004,0.724,3.729,2.168,5.172c1.445,1.443,3.166,2.166,5.162,2.166c2.021,0,3.771-0.729,5.254-2.184
			c1.396-1.384,2.095-3.101,2.095-5.154c0-2.058-0.709-3.793-2.132-5.211C298.032,405.906,296.295,405.197,294.235,405.197
			 M294.255,406.516c1.666,0,3.08,0.589,4.242,1.763c1.177,1.162,1.766,2.58,1.766,4.258c0,1.688-0.576,3.088-1.729,4.199
			c-1.213,1.198-2.64,1.799-4.279,1.799c-1.643,0-3.057-0.594-4.244-1.779c-1.188-1.188-1.782-2.592-1.782-4.219
			s0.601-3.045,1.801-4.258C291.182,407.104,292.59,406.516,294.255,406.516"/>
		<path fill="#FFFFFF" d="M292.125,423.775c0.199,0,0.383,0.018,0.547,0.053c0.165,0.035,0.307,0.092,0.424,0.172
			s0.209,0.188,0.272,0.32c0.064,0.132,0.099,0.297,0.099,0.491c0,0.214-0.049,0.388-0.146,0.527
			c-0.096,0.143-0.237,0.258-0.426,0.348c0.259,0.074,0.452,0.205,0.58,0.392c0.127,0.188,0.19,0.41,0.19,0.672
			c0,0.211-0.041,0.395-0.122,0.549c-0.083,0.154-0.193,0.281-0.334,0.379c-0.14,0.099-0.298,0.172-0.477,0.217
			c-0.179,0.048-0.362,0.07-0.55,0.07h-2.035v-4.188L292.125,423.775L292.125,423.775z M292.008,425.471
			c0.164,0,0.3-0.039,0.404-0.116c0.106-0.08,0.159-0.205,0.159-0.382c0-0.098-0.018-0.178-0.053-0.239
			c-0.036-0.062-0.082-0.111-0.142-0.146s-0.126-0.061-0.202-0.072c-0.077-0.016-0.156-0.021-0.238-0.021h-0.864v0.979h0.936
			V425.471z M292.062,427.248c0.091,0,0.177-0.008,0.259-0.025c0.082-0.02,0.154-0.049,0.218-0.088
			c0.063-0.043,0.112-0.098,0.149-0.168s0.057-0.16,0.057-0.27c0-0.216-0.061-0.369-0.183-0.461
			c-0.122-0.093-0.282-0.138-0.482-0.138h-1.006v1.148L292.062,427.248L292.062,427.248z"/>
		<polygon fill="#FFFFFF" points="293.829,423.775 294.862,423.775 295.846,425.43 296.82,423.775 297.85,423.775 296.293,426.357 
			296.293,427.965 295.368,427.965 295.368,426.334 		"/>
		<path fill="#FFFFFF" d="M323.796,426.93c0.052,0.099,0.117,0.177,0.201,0.236c0.084,0.062,0.183,0.107,0.297,0.137
			c0.111,0.029,0.229,0.043,0.352,0.043c0.081,0,0.169-0.006,0.263-0.02c0.095-0.015,0.183-0.041,0.265-0.08
			s0.148-0.092,0.205-0.162c0.055-0.068,0.081-0.154,0.081-0.26c0-0.113-0.035-0.205-0.108-0.275
			c-0.072-0.072-0.166-0.131-0.283-0.178c-0.117-0.045-0.25-0.088-0.397-0.123c-0.148-0.035-0.3-0.074-0.451-0.117
			c-0.157-0.039-0.31-0.088-0.457-0.143c-0.149-0.06-0.282-0.131-0.401-0.222c-0.114-0.09-0.21-0.2-0.282-0.338
			c-0.071-0.135-0.106-0.299-0.106-0.489c0-0.216,0.045-0.402,0.137-0.562c0.091-0.158,0.213-0.291,0.361-0.396
			c0.147-0.105,0.315-0.185,0.504-0.234s0.375-0.076,0.562-0.076c0.221,0,0.431,0.025,0.632,0.074c0.2,0.047,0.38,0.127,0.536,0.236
			c0.156,0.108,0.279,0.25,0.371,0.422c0.092,0.17,0.14,0.377,0.14,0.617h-0.896c-0.008-0.125-0.033-0.229-0.079-0.312
			c-0.044-0.082-0.104-0.145-0.178-0.193c-0.074-0.047-0.16-0.079-0.254-0.1c-0.095-0.02-0.2-0.029-0.313-0.029
			c-0.071,0-0.146,0.009-0.221,0.023c-0.075,0.016-0.142,0.043-0.203,0.082c-0.06,0.039-0.108,0.088-0.147,0.146
			c-0.038,0.062-0.061,0.136-0.061,0.226c0,0.082,0.019,0.147,0.048,0.197c0.031,0.053,0.095,0.1,0.187,0.143
			s0.219,0.086,0.381,0.129s0.375,0.098,0.636,0.164c0.079,0.016,0.188,0.045,0.325,0.086s0.277,0.107,0.414,0.197
			c0.136,0.09,0.254,0.211,0.354,0.359c0.101,0.149,0.149,0.344,0.149,0.579c0,0.191-0.038,0.369-0.113,0.533
			c-0.072,0.164-0.184,0.308-0.33,0.427c-0.146,0.118-0.329,0.213-0.548,0.278c-0.215,0.068-0.466,0.101-0.754,0.101
			c-0.229,0-0.455-0.027-0.671-0.086c-0.217-0.058-0.409-0.146-0.576-0.269c-0.166-0.121-0.297-0.275-0.396-0.463
			c-0.099-0.189-0.146-0.412-0.142-0.67h0.896C323.72,426.711,323.743,426.832,323.796,426.93"/>
		<path fill="#FFFFFF" d="M328.988,423.775l1.567,4.188h-0.957l-0.317-0.934h-1.566l-0.328,0.934h-0.928l1.584-4.188H328.988z
			 M329.041,426.344l-0.527-1.537H328.5l-0.545,1.537H329.041z"/>
		<polygon fill="#FFFFFF" points="307.389,423.775 309.141,426.586 309.149,426.586 309.149,423.775 310.015,423.775 
			310.015,427.965 309.093,427.965 307.348,425.16 307.337,425.16 307.337,427.965 306.472,427.965 306.472,423.775 		"/>
		<path fill="#FFFFFF" d="M313.514,424.891c-0.055-0.088-0.123-0.166-0.205-0.229c-0.082-0.068-0.176-0.121-0.279-0.156
			c-0.104-0.039-0.213-0.057-0.324-0.057c-0.209,0-0.385,0.041-0.528,0.121c-0.146,0.08-0.264,0.188-0.354,0.321
			c-0.091,0.136-0.155,0.289-0.195,0.461c-0.042,0.173-0.062,0.351-0.062,0.533c0,0.177,0.021,0.349,0.062,0.515
			s0.104,0.315,0.195,0.448c0.09,0.134,0.207,0.238,0.354,0.318c0.145,0.082,0.319,0.123,0.528,0.123
			c0.279,0,0.501-0.086,0.659-0.26c0.158-0.173,0.255-0.4,0.29-0.683h0.894c-0.023,0.263-0.084,0.5-0.183,0.711
			c-0.098,0.213-0.227,0.394-0.388,0.541c-0.16,0.148-0.348,0.265-0.563,0.342c-0.215,0.078-0.451,0.117-0.709,0.117
			c-0.321,0-0.61-0.055-0.866-0.168c-0.257-0.108-0.475-0.266-0.649-0.459c-0.177-0.197-0.312-0.428-0.406-0.69
			c-0.094-0.264-0.142-0.55-0.142-0.855c0-0.312,0.048-0.602,0.142-0.871c0.095-0.268,0.229-0.502,0.406-0.703
			c0.176-0.196,0.395-0.354,0.649-0.469s0.545-0.17,0.866-0.17c0.23,0,0.448,0.033,0.653,0.101c0.206,0.065,0.39,0.163,0.552,0.291
			c0.162,0.127,0.297,0.284,0.402,0.473c0.105,0.188,0.172,0.404,0.199,0.646h-0.894
			C313.604,425.076,313.567,424.979,313.514,424.891"/>
		<path fill="#FFFFFF" d="M334.011,412.529c0.003,3.698-2.995,6.7-6.695,6.703c-3.701,0.004-6.701-2.992-6.704-6.693v-0.01
			c-0.002-3.699,2.995-6.701,6.694-6.703c3.7-0.002,6.701,2.994,6.705,6.692V412.529z"/>
		<path fill="#030303" d="M327.264,405.191c-2.033,0-3.756,0.711-5.162,2.129c-1.445,1.467-2.169,3.205-2.169,5.211
			c0,2.004,0.724,3.729,2.169,5.172c1.443,1.442,3.165,2.166,5.162,2.166c2.02,0,3.771-0.729,5.254-2.185
			c1.396-1.383,2.094-3.102,2.094-5.153c0-2.058-0.709-3.793-2.131-5.211C331.061,405.902,329.319,405.191,327.264,405.191
			 M327.28,406.512c1.666,0,3.08,0.588,4.244,1.765c1.176,1.159,1.764,2.577,1.764,4.256c0,1.686-0.575,3.086-1.728,4.198
			c-1.212,1.199-2.64,1.8-4.28,1.8c-1.64,0-3.057-0.595-4.244-1.779c-1.188-1.188-1.78-2.592-1.78-4.219s0.6-3.047,1.8-4.256
			C324.206,407.1,325.614,406.512,327.28,406.512"/>
		<path fill="#030303" d="M324.01,411.494c0.293-1.846,1.593-2.834,3.222-2.834c2.343,0,3.771,1.699,3.771,3.967
			c0,2.215-1.521,3.93-3.808,3.93c-1.574,0-2.983-0.967-3.24-2.868h1.85c0.056,0.987,0.695,1.334,1.609,1.334
			c1.045,0,1.722-0.968,1.722-2.449c0-1.556-0.585-2.375-1.685-2.375c-0.806,0-1.501,0.291-1.646,1.297l0.538-0.004l-1.456,1.455
			l-1.456-1.455L324.01,411.494z"/>
		<path fill="#FFFFFF" d="M317.586,412.529c0.004,3.771-3.052,6.828-6.822,6.832c-3.771,0.002-6.83-3.052-6.832-6.822v-0.01
			c-0.004-3.771,3.051-6.828,6.822-6.832c3.77-0.002,6.83,3.053,6.832,6.821V412.529z"/>
		<path fill="#030303" d="M310.75,405.191c2.057,0,3.797,0.711,5.217,2.129c1.422,1.418,2.131,3.153,2.131,5.211
			c0,2.053-0.697,3.771-2.094,5.153c-1.482,1.455-3.233,2.185-5.255,2.185c-1.995,0-3.718-0.724-5.161-2.166
			c-1.445-1.441-2.168-3.168-2.168-5.172c0-2.006,0.723-3.744,2.168-5.211C306.995,405.902,308.717,405.191,310.75,405.191
			 M305.07,410.559c-0.22,0.619-0.329,1.275-0.329,1.974c0,1.627,0.595,3.031,1.782,4.219c1.188,1.186,2.604,1.779,4.243,1.779
			c1.642,0,3.067-0.601,4.28-1.799c0.404-0.394,0.74-0.82,1.003-1.281l-2.768-1.234c-0.187,0.933-1.017,1.562-2.021,1.635v1.132
			h-0.842v-1.132c-0.823-0.01-1.619-0.348-2.229-0.879l1.012-1.02c0.486,0.457,0.974,0.664,1.639,0.664
			c0.432,0,0.909-0.168,0.909-0.73c0-0.197-0.078-0.336-0.199-0.438l-0.699-0.312l-0.871-0.389
			c-0.432-0.191-0.797-0.354-1.163-0.519L305.07,410.559z M310.768,406.512c-1.666,0-3.073,0.588-4.225,1.765
			c-0.313,0.313-0.586,0.645-0.818,0.989l2.807,1.248c0.254-0.776,0.992-1.25,1.892-1.303v-1.131h0.842v1.131
			c0.581,0.029,1.217,0.188,1.845,0.674l-0.964,0.99c-0.354-0.252-0.806-0.428-1.255-0.428c-0.364,0-0.88,0.108-0.88,0.567
			c0,0.068,0.022,0.131,0.065,0.187l0.938,0.418l0.635,0.283c0.407,0.182,0.794,0.354,1.179,0.524l3.762,1.674
			c0.124-0.491,0.187-1.018,0.187-1.569c0-1.679-0.588-3.097-1.764-4.256C313.849,407.1,312.434,406.512,310.768,406.512"/>
	</g>
	<text transform="matrix(1 0 0 1 262.1504 399.8906)" fill="#1D1D1B" font-family="'Lato-Heavy'" font-size="7.1174">wolfCatWorkshop.com</text>
</g>
</svg>
